<svg version="1.0" xmlns="http://www.w3.org/2000/svg" width="1328" height="1706.667" viewBox="0 0 996 1280"><path d="M360.8 4.5c-.3 1.7-5.7 40.3-11.9 85.8l-11.4 82.8-10.9 13.2c-6 7.3-12.3 14.6-14 16.3-24.7 24.2-45.6 69.7-55.5 120.4-9.8 50.5-9.6 108.2.4 158.5 15.4 76.8 52.9 132.9 95.7 143 8 1.9 21.5 1.9 29.5 0 39.9-9.4 75.8-59.7 92.7-129.5 5.5-23.2 11.4-66 9-66-.5 0-.9-12.3-.9-27.3 0-26.6-1.1-42.5-4.1-61.5-7.7-48.3-25.2-97.8-43.8-123.1-9.6-13.3-26-27.8-38.4-34-4-2-4.9-3.2-8.9-11.8l-4.6-9.6-5.8-42.1c-3.2-23.2-8.1-58.8-10.9-79.1-2.8-20.4-5.2-37.4-5.4-38-.1-.5-.5.4-.8 2zm273.8 79.6c-7.6 38.7-15.7 79.7-18 91.1l-4.1 20.7-9.2 6.1c-21.9 14.6-40.2 40.2-49.7 69.5-17.4 54.2-25.2 97.3-26.3 145.7-.3 13.7-1 24.8-1.4 24.8-1.3 0-1.1 4.7.6 19.5 9.5 82.3 42 147.6 84.4 169.9 19.5 10.2 42.7 10.2 62.1 0 40.7-21.4 72.9-83.3 83.4-160.4 5.5-40.1 4.5-89.5-2.5-129-9.1-51.7-29-97-54.3-123.9-3.9-4.2-11.6-13-17.1-19.6l-10-12-11.7-85c-6.5-46.7-11.9-85.6-12-86.4-.2-.8-6.6 30.2-14.2 69zM43.5 334.4C24.2 343.1 8.4 379.8 2.4 430c-2.4 20-2.4 60.2 0 79.5 3.2 25.3 8.3 46.7 14.7 62 2.7 6.1 2.9 7.6 2.3 13.5-.8 8.4 1.1 34.1 3.7 49.5 15.8 94.8 80.9 189 145.8 211.1 14.7 5 25 6.2 36.8 4.2 23.8-4.1 41.1-19.7 51.6-46.6 19.6-50.7 6.7-133.3-31.7-203.2-40-72.7-101.9-118.7-147.6-109.7-4.1.9-7.8 1.2-8.2.9-1.3-1.3-8.7-24.3-11.7-36.4-9.7-39-12.3-82.5-6.7-114.6l1.2-7.2h-3c-1.7.1-4.4.7-6.1 1.4zm901.1 6.3c5.6 31.7 3.2 73.8-6.2 112.3-2 8-5.5 19.9-7.8 26.5-3.5 10-4.5 12-6.1 11.9-1.1-.1-6.3-.7-11.5-1.3-15.3-1.9-29.7 1.2-48.5 10.5-33.2 16.5-67.5 52.4-92.5 96.9-29.8 53.1-45.1 112.8-41.9 163 1.9 29.1 9.9 52.6 23.3 68.5 49.3 58.5 151.5-6.2 200.2-126.7 14.8-36.8 22.3-71.8 22.8-107.8.3-16.7.5-18.4 2.8-24 10.5-24.5 16.1-59.8 16.1-100.5 0-46.2-7.4-85.3-21-111.2-8-15.1-19.7-25.8-28.4-25.8h-2.6l1.3 7.7zm-464.1 371c-22.8 1.9-46.1 9.9-67 22.9-7.5 4.6-15.3 13-25.8 27.7-14.8 20.6-25.3 40.8-43.6 83.4-6.6 15.5-13.7 30.6-15.8 33.5-18.5 26.3-48.1 49.3-71.8 55.8-43.4 11.9-85.5 34.7-108.8 58.9-11.1 11.7-16.8 19.7-26.1 37.3-13.2 24.9-18.8 48.4-18.7 78.2 0 28.3 5.9 53.1 18.1 77.1 14.8 28.9 40.8 55.3 67.9 69 10 5 36.6 15.7 44.1 17.7 9 2.4 27.4 2.8 36.5.9 7.7-1.7 30.7-9 40.8-13 10.9-4.4 15.4-6.8 29.7-15.8 43.5-27.6 74.3-40.7 110.5-47 15.4-2.6 48.2-2.4 64 .6 42.8 7.9 75.1 21.7 126.9 54.4 24.5 15.5 36.3 20.8 55.1 24.9 10 2.2 37 1.6 49.4-1.1 30.8-6.6 55.4-18.8 76.7-38.3 44.8-40.7 63-102.1 48.9-164.4-7.2-31.8-28.8-66.8-53.8-87.3-15.5-12.6-19.4-14.5-45.4-22-31.7-9.2-42.8-13.7-58.6-23.8-17.1-10.9-33.6-27.1-45-44.3-9-13.5-10.1-16-31.2-69.5-15-38.2-18.5-46.1-22.8-52-31.7-44-82.6-68.2-134.2-63.8z" fill="#fff"/></svg>